<svg width="1199" height="110" fill="none" xmlns="http://www.w3.org/2000/svg"><ellipse cx="5.858" cy="83.478" rx="5.858" ry="6.244" fill="#F8D24E"/><ellipse cx="18.551" cy="75.153" rx="5.858" ry="6.244" fill="#F8D24E"/><ellipse cx="33.198" cy="65.787" rx="5.858" ry="6.244" fill="#F8D24E"/><ellipse cx="46.867" cy="57.462" rx="5.858" ry="6.244" fill="#F8D24E"/><ellipse cx="80.065" cy="86.6" rx="5.858" ry="6.244" fill="#F8D24E"/><ellipse cx="92.758" cy="78.275" rx="5.858" ry="6.244" fill="#F8D24E"/><ellipse cx="107.404" cy="68.909" rx="5.858" ry="6.244" fill="#F8D24E"/><ellipse cx="121.074" cy="60.584" rx="5.858" ry="6.244" fill="#F8D24E"/><ellipse cx="110.334" cy="82.437" rx="5.858" ry="6.244" fill="#F8D24E"/><ellipse cx="123.027" cy="74.112" rx="5.858" ry="6.244" fill="#F8D24E"/><ellipse cx="137.673" cy="64.746" rx="5.858" ry="6.244" fill="#F8D24E"/><ellipse cx="151.343" cy="56.421" rx="5.858" ry="6.244" fill="#F8D24E"/><ellipse cx="165.989" cy="43.933" rx="5.858" ry="6.244" fill="#F8D24E"/><ellipse cx="134.744" cy="51.218" rx="5.858" ry="6.244" fill="#F8D24E"/><ellipse cx="1024.25" cy="102.21" rx="5.858" ry="6.244" fill="#F8D24E"/><ellipse cx="1036.94" cy="93.885" rx="5.858" ry="6.244" fill="#F8D24E"/><ellipse cx="1051.59" cy="84.519" rx="5.858" ry="6.244" fill="#F8D24E"/><ellipse cx="1065.26" cy="76.194" rx="5.858" ry="6.244" fill="#F8D24E"/><ellipse cx="1057.44" cy="98.047" rx="5.858" ry="6.244" fill="#F8D24E"/><ellipse cx="1070.14" cy="89.722" rx="5.858" ry="6.244" fill="#F8D24E"/><ellipse cx="1084.78" cy="80.356" rx="5.858" ry="6.244" fill="#F8D24E"/><ellipse cx="1098.45" cy="72.031" rx="5.858" ry="6.244" fill="#F8D24E"/><ellipse cx="1085.76" cy="94.925" rx="5.858" ry="6.244" fill="#F8D24E"/><ellipse cx="1098.45" cy="86.6" rx="5.858" ry="6.244" fill="#F8D24E"/><ellipse cx="1113.1" cy="77.234" rx="5.858" ry="6.244" fill="#F8D24E"/><ellipse cx="1126.77" cy="68.909" rx="5.858" ry="6.244" fill="#F8D24E"/><ellipse cx="1113.1" cy="90.763" rx="5.858" ry="6.244" fill="#F8D24E"/><ellipse cx="1125.79" cy="82.437" rx="5.858" ry="6.244" fill="#F8D24E"/><ellipse cx="1140.44" cy="73.071" rx="5.858" ry="6.244" fill="#F8D24E"/><ellipse cx="1154.11" cy="64.746" rx="5.858" ry="6.244" fill="#F8D24E"/><ellipse cx="1121.89" cy="102.21" rx="5.858" ry="6.244" fill="#F8D24E"/><ellipse cx="1134.58" cy="93.885" rx="5.858" ry="6.244" fill="#F8D24E"/><ellipse cx="1152.16" cy="103.25" rx="5.858" ry="6.244" fill="#F8D24E"/><ellipse cx="1149.23" cy="84.519" rx="5.858" ry="6.244" fill="#F8D24E"/><ellipse cx="1166.8" cy="93.885" rx="5.858" ry="6.244" fill="#F8D24E"/><ellipse cx="1180.47" cy="103.25" rx="5.858" ry="6.244" fill="#F8D24E"/><ellipse cx="1162.9" cy="76.194" rx="5.858" ry="6.244" fill="#F8D24E"/><ellipse cx="1180.47" cy="85.559" rx="5.858" ry="6.244" fill="#F8D24E"/><ellipse cx="1194.14" cy="94.925" rx="5.858" ry="6.244" fill="#F8D24E"/><ellipse cx="964.687" cy="33.527" rx="5.858" ry="6.244" fill="#F8D24E"/><ellipse cx="977.38" cy="25.202" rx="5.858" ry="6.244" fill="#F8D24E"/><ellipse cx="992.026" cy="15.836" rx="5.858" ry="6.244" fill="#F8D24E"/><ellipse cx="1005.7" cy="7.511" rx="5.858" ry="6.244" fill="#F8D24E"/><ellipse cx="940.276" cy="32.486" rx="5.858" ry="6.244" fill="#F8D24E"/><ellipse cx="952.97" cy="24.161" rx="5.858" ry="6.244" fill="#F8D24E"/><ellipse cx="967.616" cy="14.795" rx="5.858" ry="6.244" fill="#F8D24E"/><ellipse cx="981.285" cy="6.47" rx="5.858" ry="6.244" fill="#F8D24E"/><ellipse cx="994.956" cy="102.21" rx="5.858" ry="6.244" fill="#F8D24E"/><ellipse cx="1007.65" cy="93.885" rx="5.858" ry="6.244" fill="#F8D24E"/><ellipse cx="1022.29" cy="84.519" rx="5.858" ry="6.244" fill="#F8D24E"/><ellipse cx="1035.96" cy="76.194" rx="5.858" ry="6.244" fill="#F8D24E"/><ellipse cx="979.333" cy="95.966" rx="5.858" ry="6.244" fill="#F8D24E"/><ellipse cx="992.026" cy="87.641" rx="5.858" ry="6.244" fill="#F8D24E"/><ellipse cx="1006.67" cy="78.275" rx="5.858" ry="6.244" fill="#F8D24E"/><ellipse cx="1020.34" cy="69.95" rx="5.858" ry="6.244" fill="#F8D24E"/><ellipse cx="985.191" cy="74.112" rx="5.858" ry="6.244" fill="#F8D24E"/><ellipse cx="997.885" cy="65.787" rx="5.858" ry="6.244" fill="#F8D24E"/><ellipse cx="1012.53" cy="56.421" rx="5.858" ry="6.244" fill="#F8D24E"/><ellipse cx="1026.2" cy="48.096" rx="5.858" ry="6.244" fill="#F8D24E"/><ellipse cx="985.191" cy="37.69" rx="5.858" ry="6.244" fill="#F8D24E"/><ellipse cx="997.885" cy="29.364" rx="5.858" ry="6.244" fill="#F8D24E"/><ellipse cx="1012.53" cy="19.998" rx="5.858" ry="6.244" fill="#F8D24E"/><ellipse cx="1026.2" cy="11.673" rx="5.858" ry="6.244" fill="#F8D24E"/><ellipse cx="982.262" cy="57.462" rx="5.858" ry="6.244" fill="#F8D24E"/><ellipse cx="994.956" cy="49.136" rx="5.858" ry="6.244" fill="#F8D24E"/><ellipse cx="1009.6" cy="39.771" rx="5.858" ry="6.244" fill="#F8D24E"/><ellipse cx="1023.27" cy="31.445" rx="5.858" ry="6.244" fill="#F8D24E"/><ellipse cx="920.749" cy="27.283" rx="5.858" ry="6.244" fill="#F8D24E"/><ellipse cx="933.442" cy="18.958" rx="5.858" ry="6.244" fill="#F8D24E"/><ellipse cx="948.088" cy="9.592" rx="5.858" ry="6.244" fill="#F8D24E"/><path d="M947.112 33.527c3.235 0 5.858-2.796 5.858-6.244 0-3.449-2.623-6.244-5.858-6.244-3.236 0-5.859 2.795-5.859 6.244 0 3.448 2.623 6.244 5.859 6.244z" fill="#F8D24E"/><ellipse cx="52.726" cy="85.559" rx="5.858" ry="6.244" fill="#F8D24E"/><ellipse cx="65.419" cy="77.234" rx="5.858" ry="6.244" fill="#F8D24E"/><ellipse cx="80.065" cy="67.868" rx="5.858" ry="6.244" fill="#F8D24E"/><ellipse cx="93.735" cy="59.543" rx="5.858" ry="6.244" fill="#F8D24E"/><ellipse cx="28.316" cy="84.519" rx="5.858" ry="6.244" fill="#F8D24E"/><ellipse cx="41.009" cy="76.193" rx="5.858" ry="6.244" fill="#F8D24E"/><ellipse cx="55.655" cy="66.828" rx="5.858" ry="6.244" fill="#F8D24E"/><ellipse cx="69.324" cy="58.502" rx="5.858" ry="6.244" fill="#F8D24E"/></svg>